<svg xmlns="http://www.w3.org/2000/svg" width="64" height="64" viewBox="0 0 64 64">
  <g id="Group_49756" data-name="Group 49756" transform="translate(-1302 -696)">
    <rect id="Rectangle_13928" data-name="Rectangle 13928" width="64" height="64" transform="translate(1302 696)" fill="#ec1d23"/>
    <g id="Group_49732" data-name="Group 49732" transform="translate(1313 706)" opacity="0.6">
      <g id="Group_49755" data-name="Group 49755" transform="translate(0 0)">
        <path id="Path_73983" data-name="Path 73983" d="M53.75,150.338q-4.01,0-8.02,0a3.253,3.253,0,0,1-3.454-3.092c-.036-.327-.245-.321-.44-.39a4.113,4.113,0,0,1-.886-7.421,2.971,2.971,0,0,1,.957-.421.416.416,0,0,0,.371-.447,3.236,3.236,0,0,1,3.244-3.005q3.461-.022,6.922,0c.4,0,.55-.116.493-.508a1.553,1.553,0,0,1,0-.381,1.12,1.12,0,0,0-.619-1.258,2.31,2.31,0,0,1-.907-2.733,2.463,2.463,0,0,1,4.7.063,2.368,2.368,0,0,1-1.02,2.742.925.925,0,0,0-.523.97c.029,1.1.009,1.1,1.09,1.1,2.069,0,4.137,0,6.206,0a3.228,3.228,0,0,1,3.35,2.991.487.487,0,0,0,.413.475,4.093,4.093,0,0,1,0,7.833.522.522,0,0,0-.412.53,3.246,3.246,0,0,1-3.348,2.948c-2.705.009-5.41,0-8.115,0m-.024-1.655h7.967a1.666,1.666,0,0,0,1.9-1.9q0-3.864,0-7.728A1.657,1.657,0,0,0,61.74,137.2H45.759a1.667,1.667,0,0,0-1.856,1.855q-.005,3.864,0,7.728a1.672,1.672,0,0,0,1.906,1.9q3.96,0,7.919,0M42.26,142.921c0-.652-.01-1.3,0-1.957.006-.3-.1-.328-.33-.2a2.465,2.465,0,0,0,0,4.353c.239.136.333.1.327-.195-.013-.668,0-1.336,0-2m22.991,0c0,.652.007,1.3,0,1.957,0,.283.059.393.343.227a2.462,2.462,0,0,0-.006-4.333c-.227-.131-.343-.111-.338.192.011.652,0,1.3,0,1.957m-11.51-10.667a.828.828,0,0,0,.83-.8.849.849,0,0,0-.811-.827.823.823,0,0,0-.819.809.8.8,0,0,0,.8.817" transform="translate(-35.258 -116.669)" fill="#fff"/>
        <path id="Path_73984" data-name="Path 73984" d="M36.974,91.752A18.481,18.481,0,1,1,15.44,73.491c.692-.111,1.388-.179,2.086-.233.715-.055,1.123.21,1.16.748s-.314.868-1.032.9A16.441,16.441,0,0,0,8.645,78.07,16.828,16.828,0,1,0,35.2,93.7a16.646,16.646,0,0,0-1.575-9.326,1.035,1.035,0,0,1-.114-.953.768.768,0,0,1,.721-.463.826.826,0,0,1,.787.517,18.112,18.112,0,0,1,1.484,4.118,19.578,19.578,0,0,1,.469,4.165" transform="translate(0 -66.257)" fill="#fff"/>
        <path id="Path_73985" data-name="Path 73985" d="M230.16,0q3.2,0,6.394,0a4.041,4.041,0,0,1,4.243,3.94c.082,1.761.08,3.533,0,5.295a4.046,4.046,0,0,1-4.176,3.913q-2.052.011-4.1,0a.845.845,0,0,0-.666.278c-1.117,1.133-2.248,2.251-3.37,3.379-.3.306-.617.574-1.086.386-.484-.194-.546-.608-.541-1.063.009-.859-.009-1.718.009-2.577.007-.31-.087-.41-.4-.4-.922.018-1.845.011-2.768,0a4.106,4.106,0,0,1-4.216-4.227c0-1.575,0-3.15,0-4.724A4.093,4.093,0,0,1,223.67,0c2.163,0,4.327,0,6.49,0M228.509,14.28l.126.044c.783-.789,1.577-1.568,2.344-2.373a1.436,1.436,0,0,1,1.142-.467c1.463.017,2.927.009,4.391.006a2.453,2.453,0,0,0,2.657-2.639q.009-2.291,0-4.582a2.472,2.472,0,0,0-2.635-2.627q-6.4-.008-12.791,0a2.478,2.478,0,0,0-2.629,2.636q-.006,2.291,0,4.582a2.463,2.463,0,0,0,2.627,2.628c1.241.005,2.482,0,3.723,0,.757,0,1.035.282,1.044,1.04.007.583,0,1.165,0,1.748" transform="translate(-198.517 -0.001)" fill="#fff"/>
        <path id="Path_73986" data-name="Path 73986" d="M219.486,243.3a2.465,2.465,0,1,1,2.456,2.452,2.451,2.451,0,0,1-2.456-2.452m2.477.8a.8.8,0,0,0,.791-.828.818.818,0,0,0-.824-.8.842.842,0,0,0-.8.835.827.827,0,0,0,.835.8" transform="translate(-198.529 -217.837)" fill="#fff"/>
        <path id="Path_73987" data-name="Path 73987" d="M121.249,243.275a2.459,2.459,0,1,1-2.455-2.451,2.444,2.444,0,0,1,2.455,2.451m-1.646.037a.814.814,0,1,0-1.627-.055.814.814,0,0,0,1.627.055" transform="translate(-105.224 -217.83)" fill="#fff"/>
        <path id="Path_73988" data-name="Path 73988" d="M261.233,78.985h-6.247a2.606,2.606,0,0,1-.475-.02.813.813,0,0,1,.011-1.611,4.261,4.261,0,0,1,.618-.024h12.3c.111,0,.223,0,.333.006a.824.824,0,0,1-.011,1.649c-.126.01-.254,0-.381,0h-6.152" transform="translate(-229.574 -69.943)" fill="#fff"/>
        <path id="Path_73989" data-name="Path 73989" d="M285.829,42.957h5a2.778,2.778,0,0,1,.381.011.815.815,0,0,1,.726.857.8.8,0,0,1-.763.769c-.142.012-.286,0-.429,0h-9.913c-.111,0-.223,0-.334,0a.819.819,0,1,1-.01-1.634c1.128-.014,2.256-.005,3.384-.006h1.954" transform="translate(-252.927 -38.853)" fill="#fff"/>
        <path id="Path_73990" data-name="Path 73990" d="M255.449,43.834a.824.824,0,0,1-1.649.013.839.839,0,0,1,.82-.828.831.831,0,0,1,.829.815" transform="translate(-229.567 -38.912)" fill="#fff"/>
      </g>
    </g>
  </g>
</svg>
