<svg xmlns="http://www.w3.org/2000/svg" width="40.68" height="36.349" viewBox="0 0 40.68 36.349">
  <g id="Group_49862" data-name="Group 49862" transform="translate(-255.5 -4024.091)">
    <path id="Path_74046" data-name="Path 74046" d="M20.32-78.56q-4.8,0-7.12-3.12a12.644,12.644,0,0,1-2.32-7.76A32.811,32.811,0,0,1,14-102.48a33.473,33.473,0,0,1,7.6-11.28l4.48,3.2a33.388,33.388,0,0,0-4.96,8.16,25.194,25.194,0,0,0-2.08,9.12,5.492,5.492,0,0,1,2.24-.32,7.062,7.062,0,0,1,4.96,1.92,6.633,6.633,0,0,1,2.08,5.12,7.868,7.868,0,0,1-2.24,5.68A7.654,7.654,0,0,1,20.32-78.56Zm22.24,0a8.337,8.337,0,0,1-7.04-3.12,12.35,12.35,0,0,1-2.4-7.76,32.4,32.4,0,0,1,3.2-12.96A34.228,34.228,0,0,1,44-113.76l4.32,3.2a36.492,36.492,0,0,0-4.8,8.16,27.894,27.894,0,0,0-2.24,9.12,6.232,6.232,0,0,1,2.24-.32,7.062,7.062,0,0,1,4.96,1.92,6.633,6.633,0,0,1,2.08,5.12A7.955,7.955,0,0,1,48.4-80.8,7.735,7.735,0,0,1,42.56-78.56Z" transform="translate(245.12 4138.5)" fill="none" stroke="#4e4e4e" stroke-width="1"/>
  </g>
</svg>
