<svg xmlns="http://www.w3.org/2000/svg" xmlns:xlink="http://www.w3.org/1999/xlink" width="78" height="52" viewBox="0 0 78 52">
  <defs>
    <clipPath id="clip-path">
      <rect id="Rectangle_14026" data-name="Rectangle 14026" width="78" height="52" transform="translate(382 3442.198)" fill="#4e4e4e"/>
    </clipPath>
    <clipPath id="clip-path-2">
      <rect id="Rectangle_14024" data-name="Rectangle 14024" width="43.903" height="35.614" fill="#4e4e4e"/>
    </clipPath>
  </defs>
  <g id="Mask_Group_259" data-name="Mask Group 259" transform="translate(-382 -3442.198)" clip-path="url(#clip-path)">
    <g id="Group_49852" data-name="Group 49852" transform="translate(382 3442)">
      <g id="Group_49849" data-name="Group 49849" transform="translate(0 20.933)">
        <g id="Group_49848" data-name="Group 49848" clip-path="url(#clip-path-2)">
          <path id="Path_74088" data-name="Path 74088" d="M21.983,2.93c4.767,0,9.535-.008,14.3.012.5,0,.675-.128.625-.632a10.1,10.1,0,0,1,0-1.335A.929.929,0,0,1,37.865,0,.945.945,0,0,1,38.8,1.006c.01.511.017,1.023,0,1.534-.012.307.1.4.4.4,1.138-.012,2.276-.013,3.415,0a.89.89,0,0,1,.945,1.094.878.878,0,0,1-.976.72c-1.105.008-2.211.018-3.316,0-.373-.008-.486.107-.472.476.027.692.026,1.386,0,2.078-.013.362.128.441.458.435,1.089-.017,2.177-.011,3.266,0a.951.951,0,0,1,1.029.675.919.919,0,0,1-.966,1.171c-1.105.013-2.211.02-3.316,0-.378-.008-.485.116-.47.479.025.642.033,1.288,0,1.929-.023.439.087.605.563.588,1.038-.038,2.078-.014,3.117-.011.7,0,1.1.337,1.105.914s-.408.922-1.1.926c-1.072.007-2.145.011-3.217,0-.324,0-.478.066-.464.434.027.692.022,1.386,0,2.078-.009.32.091.437.42.427.692-.021,1.386-.01,2.079-.005A2.473,2.473,0,0,1,43.9,19.9q.014,1.262,0,2.524a2.478,2.478,0,0,1-2.618,2.6c-.61,0-1.221,0-1.831,0-.649,0-.649,0-.649.628q0,4.355,0,8.71a3.219,3.219,0,0,1-.011.445.946.946,0,0,1-1.867.025,3.476,3.476,0,0,1-.019-.543c0-2.887-.015-5.774.013-8.661.005-.523-.155-.634-.639-.615-.939.037-1.881.033-2.82,0-.384-.013-.474.11-.471.47.014,2.226.008,4.452.008,6.678,0,.2.006.4-.011.594a.9.9,0,0,1-.928.892.885.885,0,0,1-.891-.927c-.014-1.155-.006-2.309,0-3.464,0-1.237-.006-2.474.019-3.71.008-.4-.1-.533-.523-.532-4.37.016-8.74.01-13.11.009-1.434,0-2.869.006-4.3-.017-.393-.006-.5.122-.5.506.02,2.226.016,4.452.02,6.678,0,.148,0,.3,0,.445a.911.911,0,0,1-.909,1.011.9.9,0,0,1-.917-1c-.014-1.055,0-2.11,0-3.165,0-1.351,0-2.7.014-4.052,0-.322-.11-.427-.433-.42-1.006.022-2.013.036-3.018.008-.413-.011-.488.141-.486.512.013,2.854.007,5.708.007,8.562,0,.148,0,.3,0,.445-.014.676-.379,1.087-.958,1.08s-.937-.426-.938-1.1c0-2.969-.013-5.939.011-8.908,0-.489-.14-.62-.61-.593-.674.039-1.352.019-2.029.007A2.4,2.4,0,0,1,.056,22.769,24.721,24.721,0,0,1,.047,19.6,2.413,2.413,0,0,1,2.524,17.33q1.113-.018,2.227,0c.279.005.378-.092.372-.371-.013-.726-.016-1.452,0-2.177.008-.317-.122-.39-.409-.387-1.023.011-2.046,0-3.068,0a3.509,3.509,0,0,1-.493-.02.89.89,0,0,1-.811-.952.875.875,0,0,1,.9-.863c1.122-.016,2.244-.025,3.365,0,.421.01.538-.128.518-.533-.031-.642-.03-1.287,0-1.929.019-.4-.094-.546-.518-.534-1.055.029-2.111.013-3.167.008-.7,0-1.1-.348-1.1-.926S.758,7.732,1.45,7.73c1.056,0,2.112-.021,3.167.009.425.012.532-.13.512-.534-.034-.658-.028-1.32,0-1.979.015-.365-.09-.487-.468-.48-1.138.022-2.276.013-3.415,0a.831.831,0,0,1-.877-.714.9.9,0,0,1,.5-1.025,1.384,1.384,0,0,1,.584-.076c1.072,0,2.145-.012,3.217,0,.335.005.476-.084.456-.443C5.1,2,5.114,1.5,5.123,1.009a.948.948,0,1,1,1.892.012c.01.478.025.958,0,1.435-.022.368.1.487.471.482,1.385-.019,2.771-.007,4.157-.007H21.983m-.051,16.313H11.892q-4.576,0-9.152,0c-.643,0-.793.154-.8.785,0,.726,0,1.452,0,2.177,0,.78.131.907.928.908q7.617.008,15.235.013,8.283,0,16.566-.013c2.161,0,4.322,0,6.483,0,.6,0,.806-.145.815-.616.017-.89.009-1.782,0-2.672a.53.53,0,0,0-.553-.571c-.214-.015-.428-.012-.643-.012H21.931m0-11.514v.006H25.15c3.759,0,7.518-.008,11.278,0,.359,0,.5-.079.482-.464-.031-.625-.008-1.253-.008-1.88s0-.638-.639-.638H10.528c-1.039,0-2.078.009-3.117-.005-.3,0-.406.091-.4.4.018.692.031,1.387,0,2.078-.022.427.132.516.532.515q7.2-.019,14.394-.008m-.025,4.828v0h4.6c3.3,0,6.6-.007,9.893.006.386,0,.524-.1.506-.5a17.573,17.573,0,0,1,0-1.929c.029-.469-.143-.568-.585-.567q-8.977.016-17.954,0c-3.627,0-7.253.011-10.879,0-.363,0-.5.089-.482.467a18.288,18.288,0,0,1,0,1.929c-.031.484.137.6.608.6,4.764-.017,9.529-.01,14.294-.01m.041,1.843v0H16.115c-2.868,0-5.737.009-8.606-.007-.4,0-.515.12-.5.505.028.642.034,1.288,0,1.929-.023.432.145.523.54.511.841-.025,1.682,0,2.523,0l18.054,0c2.754,0,5.508-.013,8.262,0,.419,0,.54-.125.52-.531a17.378,17.378,0,0,1,0-1.83c.024-.439-.095-.589-.566-.588-4.8.018-9.6.011-14.393.011" transform="translate(0 0)" fill="#4e4e4e"/>
        </g>
      </g>
      <g id="Group_49851" data-name="Group 49851" transform="translate(40.888)">
        <ellipse id="Ellipse_212" data-name="Ellipse 212" cx="8" cy="9.5" rx="8" ry="9.5" transform="translate(20.112 22.198)" fill="none"/>
        <g id="Group_49850" data-name="Group 49850">
          <ellipse id="Ellipse_211" data-name="Ellipse 211" cx="11.5" cy="17" rx="11.5" ry="17" transform="translate(0.112 0.198)" fill="none"/>
          <path id="Path_74089" data-name="Path 74089" d="M2310,3171.176v41.9" transform="translate(-2297.821 -3157.973)" fill="none"/>
          <path id="Path_74091" data-name="Path 74091" d="M2310,3178.808v23.67" transform="translate(-2282.161 -3147.373)" fill="none"/>
          <path id="Path_74090" data-name="Path 74090" d="M2308.923,3187.788l-7.2-8.841" transform="translate(-2296.744 -3158.984)" fill="none"/>
          <path id="Path_74092" data-name="Path 74092" d="M2310.5,3188.116l-5.321,4.748" transform="translate(-2292.843 -3168.006)" fill="none"/>
        </g>
      </g>
    </g>
  </g>
</svg>
