<svg id="Group_49847" data-name="Group 49847" xmlns="http://www.w3.org/2000/svg" xmlns:xlink="http://www.w3.org/1999/xlink" width="54.112" height="40.886" viewBox="0 0 54.112 40.886">
  <defs>
    <clipPath id="clip-path">
      <rect id="Rectangle_14023" data-name="Rectangle 14023" width="54.112" height="40.886" fill="#4e4e4e"/>
    </clipPath>
  </defs>
  <g id="Group_49846" data-name="Group 49846" clip-path="url(#clip-path)">
    <path id="Path_74085" data-name="Path 74085" d="M43.912,11.879c-2.907,0-5.815.041-8.721-.021-1.093-.023-1.438.342-1.422,1.426.052,3.8.029,7.594.015,11.391,0,.811-.035,1.417,1.13.961,1.451-.567,2.662.094,3.695,1.1,1.152,1.125,2.221,1.056,3.427.009,2.047-1.778,3.328-1.8,5.31-.055,1.256,1.1,2.366,1.2,3.566,0a3.641,3.641,0,0,1,2.319-1.2c.375-.028.735.051.855.462.129.44-.178.643-.534.772-.166.06-.4.026-.511.129-2.488,2.228-4.929,2.83-7.565.123-.57-.586-1.556-.128-2.272.433-2.513,1.969-3.377,1.995-5.719.075a2.24,2.24,0,0,0-3.188-.012c-2.467,1.951-3.186,1.942-5.716-.056a2.159,2.159,0,0,0-3.039.007c-2.5,2-3.3,2-5.721.051a2.2,2.2,0,0,0-3.177,0c-2.253,1.894-3.4,1.9-5.587.056a2.279,2.279,0,0,0-3.326,0c-2.276,1.874-3.259,1.848-5.579-.051a3.54,3.54,0,0,0-1.576-.754.6.6,0,0,1-.542-.768.706.706,0,0,1,.848-.476A3.722,3.722,0,0,1,3.2,26.683C4.39,27.895,5.513,27.8,6.77,26.7c1.952-1.712,3.3-1.741,5.166-.072,1.3,1.165,2.3,1.048,3.75.076,1.587-1.066,1.851-2.316,1.791-4.016-.107-3.022-.114-6.054.005-9.075.058-1.478-.48-1.783-1.83-1.762-4.508.069-9.018.048-13.526-.011-.705-.009-2.038.54-1.992-.662.04-1.055,1.352-.59,2.1-.6,4.509-.042,9.018-.065,13.526.007,1.3.021,1.762-.3,1.723-1.675A8.03,8.03,0,0,1,22.136.953a7.98,7.98,0,0,1,9.008,1,1.122,1.122,0,0,0,1.669-.042A8.013,8.013,0,0,1,41.831.979,7.964,7.964,0,0,1,46.417,8.8c-.036,1.394.375,1.9,1.8,1.79,1.593-.121,3.2-.041,4.8-.022.465.006,1.053.016,1.042.675-.012.674-.619.619-1.071.621-3.025.014-6.051.008-9.077.008v.009M30.938,17.015c0,2.844-.041,5.69.03,8.533.017.681-.585,1.943.724,1.928,1.27-.015.594-1.275.778-1.986a1.472,1.472,0,0,0,0-.354c0-5.512-.039-11.025.019-16.536a5.481,5.481,0,0,1,5.579-5.681c3.154,0,5.434,2.362,5.526,5.716.008.3.009.593.006.889-.005.594.11,1.068.87,1.024.676-.039.659-.511.711-1a7.3,7.3,0,0,0-6.772-8.2,7.121,7.121,0,0,0-7.458,7.319c-.031,2.785-.006,5.571-.009,8.356M20.3,16.436h.007c0-2.668-.044-5.336.012-8A5.561,5.561,0,0,1,29.6,4.344c.3.262.609.675,1.012.138.3-.4.543-.832.05-1.25a9.161,9.161,0,0,0-1.276-.957,7.066,7.066,0,0,0-10.6,6.073c-.1,5.274-.023,10.552-.022,15.828,0,.237,0,.475.022.711a.964.964,0,0,0,1.122.889c.64-.024.373-.638.376-.982.027-2.786.015-5.572.015-8.358m17.64-5.88c1.123,0,2.245.01,3.368-.005.4-.006.909.043.965-.528.16-1.619.105-3.2-1.132-4.47A4.017,4.017,0,0,0,36.771,4.4a4.051,4.051,0,0,0-2.929,3.448c-.385,2.544-.228,2.708,2.324,2.709.591,0,1.182,0,1.772,0m-12.263,0c.95,0,1.9.012,2.849-.006.392-.008.807.073,1.046-.438a4.433,4.433,0,0,0-1.9-5.52,4.235,4.235,0,0,0-6.013,3.314c-.333,2.491-.2,2.65,2.24,2.651h1.78m3.858,15.776c.04-.791.02-1.267.095-1.727.239-1.464-.439-1.834-1.792-1.741a35.765,35.765,0,0,1-4.626,0c-1.228-.075-1.776.311-1.6,1.581.055.407-.052.835,0,1.243.076.606-.3,1.4.474,1.754a1.79,1.79,0,0,0,2.1-.557c1.523-1.586,3.215-1.9,5.354-.554m-3.78-14.457c-.888,0-1.775.017-2.662,0-.82-.02-1.5-.04-1.5,1.148,0,1.08.485,1.288,1.41,1.265,1.774-.043,3.55-.041,5.324,0,.855.019,1.3-.187,1.323-1.167.028-1.09-.491-1.3-1.407-1.248-.826.046-1.656.01-2.484.009m-.04,3.643c-.948,0-1.9.034-2.845-.01-.888-.04-1.276.261-1.272,1.214,0,.935.351,1.242,1.262,1.217q2.754-.075,5.512,0c.9.022,1.28-.253,1.274-1.205-.007-.929-.353-1.277-1.264-1.226-.887.05-1.778.011-2.667.013M25.6,21.569c.943,0,1.888-.042,2.828.012s1.214-.371,1.21-1.256c0-.861-.369-1.131-1.17-1.119-1.827.026-3.654.029-5.481,0-.9-.015-1.417.177-1.392,1.265.024,1.035.562,1.13,1.353,1.107.883-.026,1.768-.006,2.652-.007" transform="translate(-0.006 0)" fill="#4e4e4e"/>
    <path id="Path_74086" data-name="Path 74086" d="M49.05,136.243a3.5,3.5,0,0,1-2.578-1.219c-1.212-1.186-2.335-1.072-3.572.047-1.826,1.651-3.306,1.66-5.184,0-1.338-1.184-2.446-1.091-3.732.066-1.737,1.563-3.29,1.569-5.048-.009-1.3-1.169-2.4-1.227-3.724-.038-1.835,1.644-3.318,1.62-5.183-.031a2.367,2.367,0,0,0-3.6-.025c-1.977,1.718-3.337,1.7-5.319-.043a2.285,2.285,0,0,0-3.448-.009c-2.072,1.787-3.286,1.748-5.457-.048a3.51,3.51,0,0,0-1.557-.8c-.364-.074-.731-.271-.638-.705.106-.5.542-.571.99-.522a3.3,3.3,0,0,1,2.017,1.042c1.275,1.3,2.456,1.336,3.845.059,1.751-1.611,3.275-1.592,5.036.008,1.287,1.169,2.371,1.267,3.716.071,1.913-1.7,3.277-1.7,5.17-.018,1.328,1.179,2.422,1.14,3.727-.03,1.818-1.63,3.244-1.648,5.03-.033,1.372,1.241,2.5,1.228,3.864-.013,1.758-1.6,3.2-1.578,5.036.059,1.32,1.176,2.408,1.19,3.72,0,1.845-1.668,3.278-1.661,5.168.038,1.263,1.135,2.371,1.176,3.57.007a3.627,3.627,0,0,1,2.318-1.2.819.819,0,0,1,.782.319c.147.214.158.589-.043.628-1.789.35-2.708,2.357-4.637,2.409-.059,0-.119,0-.272,0" transform="translate(0 -101.418)" fill="#4e4e4e"/>
    <path id="Path_74087" data-name="Path 74087" d="M5.061,161.441a3.43,3.43,0,0,1-2.443-.956,12.58,12.58,0,0,0-1.439-1.017c-.448-.27-1.437-.153-1.007-1.039.3-.617,1.214-.474,1.59-.108,2.22,2.163,4.222,2.024,6.569.03.992-.842,2.472-.2,3.562.748,1.7,1.478,2.2,1.445,3.959,0,1.723-1.41,3.25-1.452,4.915.1,1.371,1.274,2.5,1.2,3.856-.015,1.741-1.564,3.241-1.535,5.038.063,1.307,1.162,2.407,1.2,3.721,0,1.808-1.651,3.261-1.63,5.169.048a2.357,2.357,0,0,0,3.591,0c1.9-1.671,3.343-1.7,5.18-.06,1.314,1.171,2.477,1.243,3.715-.013a3.261,3.261,0,0,1,2.346-1.111c.3,0,.616.057.716.4.125.422-.09.68-.5.773a4.013,4.013,0,0,0-1.708.9c-2.123,1.779-3.278,1.788-5.447-.049a2.266,2.266,0,0,0-3.321-.018c-2.282,1.879-3.287,1.875-5.574-.03a2.257,2.257,0,0,0-3.316.076c-2.144,1.81-3.315,1.814-5.45-.01a2.3,2.3,0,0,0-3.451.07c-1.988,1.731-3.309,1.733-5.315-.016-1.282-1.117-2.352-1.03-3.585.073-1.852,1.656-3.3,1.664-5.17,0-1.325-1.179-2.478-1.2-3.71.058a3.092,3.092,0,0,1-2.5,1.107" transform="translate(-0.051 -120.637)" fill="#4e4e4e"/>
  </g>
</svg>
