<svg id="Group_49845" data-name="Group 49845" xmlns="http://www.w3.org/2000/svg" xmlns:xlink="http://www.w3.org/1999/xlink" width="63.717" height="50.745" viewBox="0 0 63.717 50.745">
  <defs>
    <clipPath id="clip-path">
      <rect id="Rectangle_14022" data-name="Rectangle 14022" width="63.717" height="50.745" fill="#4e4e4e"/>
    </clipPath>
  </defs>
  <g id="Group_49844" data-name="Group 49844" clip-path="url(#clip-path)">
    <path id="Path_74084" data-name="Path 74084" d="M28.135,38.479H52.382c.821,0,.822,0,.537-.8-1.943-5.448-3.9-10.893-5.817-16.349a.931.931,0,0,0-1.059-.729q-11.734.03-23.468.015A3.491,3.491,0,0,1,18.8,17.8a3.433,3.433,0,0,1,2.708-4.062,7.641,7.641,0,0,1,1.336-.091c7.3-.006,14.609-.017,21.913.014a1.219,1.219,0,0,0,1.287-.814c.13-.282.088-.393-.143-.569C43.916,10.77,43.7,9.568,45,7.4,46.014,5.7,47.019,4,48.039,2.3a2.909,2.909,0,0,1,4.437-1.086c.283.178.411.234.645-.11A2.38,2.38,0,0,1,56.353.323c.378.192.75.395,1.122.6a2.232,2.232,0,0,1,.992,3.329c-1.53,2.758-3.01,5.549-4.66,8.234a3.859,3.859,0,0,0-.342,3.76c2.714,7.37,5.31,14.783,7.938,22.184a1.4,1.4,0,0,0,.578.751,3.715,3.715,0,0,1,1.586,4.187,3.861,3.861,0,0,1-3.578,2.818c-1.389.07-1.386.07-1.419,1.483-.016.683-.044,1.366-.071,2.048a.92.92,0,0,1-.964,1c-2.143.022-4.287.016-6.431,0a1.074,1.074,0,0,1-.948-.738c-.536-1.1-1.1-2.185-1.628-3.289a.773.773,0,0,0-.807-.51q-15.9.019-31.81,0a.848.848,0,0,0-.846.473c-.644,1.123-1.334,2.22-1.972,3.346a1.354,1.354,0,0,1-1.322.745c-1.908-.018-3.817,0-5.726-.01-1.066,0-1.34-.294-1.311-1.358.021-.754.058-1.507.084-2.26.032-.913.03-.913-.872-.93A3.912,3.912,0,0,1,.208,43.574a3.854,3.854,0,0,1,3.682-5.091q12.123-.017,24.246,0m3.726,5.791H54.485c1.768,0,3.535.01,5.3-.007a1.924,1.924,0,0,0,1.964-1.593,1.959,1.959,0,0,0-1.187-2.111,2.933,2.933,0,0,0-1.25-.154q-27.4,0-54.791,0a7.515,7.515,0,0,0-.917.031,1.9,1.9,0,0,0-1.665,1.746,1.955,1.955,0,0,0,1.235,1.95,3.208,3.208,0,0,0,1.184.14q13.751,0,27.5,0m2.247-25.487c3.794,0,7.589-.008,11.383.009.53,0,.666-.12.449-.63a4.1,4.1,0,0,1-.481-1.829c.043-.647-.185-.763-.786-.761-7.377.021-14.753.014-22.13.015a3.777,3.777,0,0,0-.564.019,1.51,1.51,0,0,0-1.3,1.377,1.5,1.5,0,0,0,1.011,1.6,3.78,3.78,0,0,0,1.317.2q5.55-.009,11.1,0M51.73,28.441a1.3,1.3,0,0,0,.028.258q1.712,4.7,3.422,9.4a.509.509,0,0,0,.572.384q1.553-.021,3.107,0c.393.006.49-.093.344-.487-1.13-3.063-2.243-6.133-3.361-9.2-.076-.208-.161-.363-.437-.36-1.219.013-2.439.006-3.676.006M48.817,12.067a3.8,3.8,0,0,1,1.97.3c.614.355.819.094,1.095-.4,1.474-2.652,2.972-5.29,4.471-7.927.762-1.34.822-1.187-.556-1.963-.578-.325-.939-.28-1.306.342-1.783,3.017-3.609,6.008-5.416,9.011a1.012,1.012,0,0,0-.258.639m1.894,7.877c.564,0,1.128-.007,1.692,0,.287.005.38-.076.271-.372-.538-1.452-1.017-2.927-1.609-4.356A1.807,1.807,0,0,0,48.7,14.26a1.86,1.86,0,0,0-1.118,2.356c.151.493.349.972.52,1.459.655,1.869.654,1.869,2.609,1.869M46.1,9.468c-.036.672.5.923.981,1.129.5.216.524-.359.678-.607,1.264-2.034,2.5-4.088,3.741-6.134.47-.772.458-.832-.318-1.255-.572-.312-1.063-.159-1.465.509C48.579,5,47.455,6.9,46.322,8.791a1.364,1.364,0,0,0-.22.676M53.5,46.189c-.87,0-1.741.026-2.609-.009-.546-.022-.531.168-.317.555.3.534.585,1.073.84,1.627a.7.7,0,0,0,.767.452c.8-.029,1.6.011,2.4-.015.649-.022,1.486.292,1.9-.133s.089-1.258.171-1.907c.054-.427-.092-.592-.536-.578-.869.027-1.739.008-2.609.009m-43.61,0H8.756c-2.151-.006-2.142-.006-2.078,2.139.011.365.105.5.479.485.681-.025,1.364.014,2.045-.012.768-.029,1.677.3,2.266-.131s.824-1.284,1.25-1.93c.345-.523.1-.568-.364-.557-.823.019-1.646.005-2.469.006M49.406,21.956c.318,1.261.318,1.261,1.484,1.262.33,0,.66-.011.988.005a.86.86,0,0,1,.912.876.871.871,0,0,1-.825,1.029c-.348.045-.7.016-1.056.033-.125.006-.289-.051-.337.151a1.261,1.261,0,0,0,.9,1.173c1.012,0,2.024-.012,3.036.008.407.008.487-.112.345-.489q-.684-1.814-1.324-3.644a.5.5,0,0,0-.553-.41c-1.175.014-2.35.006-3.575.006" transform="translate(0 0)" fill="#4e4e4e"/>
  </g>
</svg>
