<svg xmlns="http://www.w3.org/2000/svg" width="58" height="58" viewBox="0 0 58 58">
  <g id="Group_49810" data-name="Group 49810" transform="translate(5865 -1228) rotate(90)">
    <g id="Path_74050" data-name="Path 74050" transform="translate(1228 5807)" fill="none">
      <path d="M29,0A29,29,0,1,1,0,29,29,29,0,0,1,29,0Z" stroke="none"/>
      <path d="M 29 2 C 25.35414123535156 2 21.81840133666992 2.713600158691406 18.49098968505859 4.1209716796875 C 15.27608871459961 5.480758666992188 12.38838958740234 7.427841186523438 9.908119201660156 9.908119201660156 C 7.427841186523438 12.38838958740234 5.480758666992188 15.27608871459961 4.1209716796875 18.49098968505859 C 2.713600158691406 21.81840133666992 2 25.35414123535156 2 29 C 2 32.64585876464844 2.713600158691406 36.18160247802734 4.1209716796875 39.50901031494141 C 5.480758666992188 42.72391128540039 7.427841186523438 45.61161041259766 9.908119201660156 48.09188079833984 C 12.38838958740234 50.57215881347656 15.27608871459961 52.51924133300781 18.49098968505859 53.8790283203125 C 21.81840133666992 55.28639984130859 25.35414123535156 56 29 56 C 32.64585876464844 56 36.18160247802734 55.28639984130859 39.50901031494141 53.8790283203125 C 42.72391128540039 52.51924133300781 45.61161041259766 50.57215881347656 48.09188079833984 48.09188079833984 C 50.57215881347656 45.61161041259766 52.51924133300781 42.72391128540039 53.8790283203125 39.50901031494141 C 55.28639984130859 36.18160247802734 56 32.64585876464844 56 29 C 56 25.35414123535156 55.28639984130859 21.81840133666992 53.8790283203125 18.49098968505859 C 52.51924133300781 15.27608871459961 50.57215881347656 12.38838958740234 48.09188079833984 9.908119201660156 C 45.61161041259766 7.427841186523438 42.72391128540039 5.480758666992188 39.50901031494141 4.1209716796875 C 36.18160247802734 2.713600158691406 32.64585876464844 2 29 2 M 29 0 C 45.01625823974609 0 58 12.98374176025391 58 29 C 58 45.01625823974609 45.01625823974609 58 29 58 C 12.98374176025391 58 0 45.01625823974609 0 29 C 0 12.98374176025391 12.98374176025391 0 29 0 Z" stroke="none" fill="#edebe8"/>
    </g>
    <path id="Path_74049" data-name="Path 74049" d="M1295.679,5714.221l11.878-10.041,12.336,10.041" transform="translate(-51.179 127.32)" fill="none" stroke="#d5d5d5" stroke-width="2"/>
  </g>
</svg>
