<svg xmlns="http://www.w3.org/2000/svg" xmlns:xlink="http://www.w3.org/1999/xlink" width="54.172" height="54.347" viewBox="0 0 54.172 54.347">
  <defs>
    <clipPath id="clip-path">
      <rect id="Rectangle_13764" data-name="Rectangle 13764" width="54.172" height="54.347" fill="#4e4e4e"/>
    </clipPath>
  </defs>
  <g id="Group_49687" data-name="Group 49687" transform="translate(0)">
    <g id="Group_49686" data-name="Group 49686" transform="translate(0)" clip-path="url(#clip-path)">
      <path id="Path_73900" data-name="Path 73900" d="M8.843,41.1c1.482-2.41,1.273-4.209-.588-6.2-.463-.495-.791-.136-1.1.017-1.083.531-1.947.522-2.626-.649-.66-1.138-.266-1.895.642-2.668,2.918-2.485,2.509-2.678,5.621-.084.714.6,1.376,1.907,2.356,1.414.8-.4.278-1.722.306-2.627.061-1.925,0-3.855.028-5.782a.95.95,0,0,0-.752-1.108,5.966,5.966,0,0,0-4.32-.032,3.934,3.934,0,0,1-5.226-3.555c-.109-1.591-.009-3.2-.038-4.794-.016-.891.443-1.109,1.24-1.093,1.692.034,3.389-.062,5.076.033a6.122,6.122,0,0,0,3.456-.932A23.9,23.9,0,0,0,23.486,1.878,2.9,2.9,0,0,1,26.356.034c2.588-.23,3.919.7,5,3.05,2.27,4.941,6.375,8.143,11.112,10.6a4.9,4.9,0,0,0,2.348.252c1.645.03,3.292.043,4.936,0,.894-.025,1.3.278,1.276,1.208-.039,1.5.032,3.01-.029,4.512a3.841,3.841,0,0,1-2.335,3.576,3.91,3.91,0,0,1-4.122-.495c-.328-.235-.614-1.077-1.044-.572-.553.649-1.759.674-1.76,1.817,0,2.774.011,5.548-.008,8.321,0,.627.266.822.85.8.7-.028,1.414.04,2.114-.014a1.736,1.736,0,0,1,2.081,1.594c.121.646.243,1.294.42,1.926a1.468,1.468,0,0,1-1.088,2.063c-.273.083-.789-.028-.64.5a5.9,5.9,0,0,0,.743,1.8c.187.265.558-.177.805-.368.409-.317.839-.791,1.3-.187.408.529-.141.845-.46,1.152a10.257,10.257,0,0,1-13.524.031c-.374-.351-.906-.735-.4-1.276.427-.459.874-.074,1.2.27.62.651.821.41,1.24-.3,1.3-2.193-.174-3.706-1.128-5.366-.34-.592-.764-.174-1.087-.015-1.075.531-1.927.532-2.631-.632s-.259-1.885.621-2.663c2.795-2.468,2.757-2.459,5.615-.112.723.594,1.4,1.9,2.353,1.426.772-.381.258-1.717.288-2.624.058-1.785-.013-3.573.03-5.359.02-.834-.026-1.425-1.1-1.506-.964-.073-1.564-1.359-2.307-1.325-.692.032-1.309,1.113-2.212,1.336a4,4,0,0,1-3.8-.928c-.708-.622-1.282-.4-1.449.55a4.929,4.929,0,0,0-.016.845c0,6.817.039,13.634-.035,20.451-.014,1.3.391,1.53,1.582,1.516,5.5-.063,11,.005,16.5-.052,1.258-.013,1.791.3,1.736,1.649-.082,2.008,0,2,1.992,2.015,3.262.029,2.808-.425,2.836,2.847.017,2,0,2-1.991,2H2.1c-2.1,0-2.114,0-2.1-2.037.027-3.235-.425-2.772,2.87-2.816,2.283-.03,2.01.286,1.943-1.913-.042-1.372.422-1.767,1.777-1.751,5.594.068,11.189,0,16.783.051.99.008,1.261-.275,1.255-1.258-.04-6.958-.026-13.916-.013-20.874,0-.64-.017-1.277-.625-1.607-.641-.349-.819.415-1.186.671a3.893,3.893,0,0,1-4.942-.2c-.58-.522-.781-.438-1.51-.1-1.776.823-1.7,2.169-1.664,3.684.053,1.973.037,3.949,0,5.923-.013.731.237,1.057.974.973a3.844,3.844,0,0,1,.423,0c3.744-.021,3.2-.319,4.174,3.726a1.434,1.434,0,0,1-1.086,1.848c-.265.089-.836-.084-.725.4a3.168,3.168,0,0,0,.79,1.9c.334.269.625-.266.895-.482.407-.326.858-.585,1.2-.067s-.165.845-.5,1.164a10.224,10.224,0,0,1-13.414.08c-.378-.341-.974-.73-.563-1.261.505-.653.978-.046,1.407.3.18.144.378.265.57.4m18.4,9.648c-8.174,0-16.349.027-24.523-.028-1.255-.008-1.5.454-1.425,1.56.086,1.225.963.813,1.558.814q24.241.03,48.482.016c.235,0,.471-.015.7,0,.588.035.808-.226.864-.821.1-1.094-.151-1.578-1.421-1.569-8.08.058-16.16.029-24.241.029m-.151-33.185c7.1,0,14.2-.013,21.3.016.9,0,1.351-.117,1.352-1.2s-.455-1.2-1.351-1.2q-21.3.032-42.6,0c-.9,0-1.35.118-1.35,1.2s.451,1.2,1.35,1.2c7.1-.029,14.2-.016,21.3-.016m.149,29.613c-6.579,0-13.157.01-19.735-.013-.86,0-1.372.048-1.364,1.166.008,1.08.45,1.185,1.344,1.183q19.594-.035,39.189,0c.861,0,1.372-.041,1.363-1.16-.009-1.076-.449-1.192-1.343-1.189-6.484.029-12.969.016-19.454.016m1-12.324c0-3.382-.025-6.764.017-10.145.011-.876-.164-1.2-1.146-1.175-.907.02-1.189.2-1.184,1.137q.056,10,0,20.008c0,.874.174,1.234,1.145,1.218.906-.015,1.2-.245,1.186-1.18-.054-3.287-.021-6.575-.021-9.863M22.617,13.883h8.957c-2.55-3.908-3.4-8.24-4.493-12.554C26,5.653,25.112,9.945,22.617,13.883m6.31-12.258A26.281,26.281,0,0,0,32.841,13.5a.773.773,0,0,0,.664.441c2.076-.006,4.152,0,6.228,0A28.8,28.8,0,0,1,28.927,1.625M14.461,13.942c1.854,0,3.709-.039,5.562.019a1.58,1.58,0,0,0,1.582-.872A25.045,25.045,0,0,0,24.594,5.68c.16-.686.345-1.366.481-2.056.125-.636.2-1.282.3-1.923A30.516,30.516,0,0,1,14.461,13.942M41.5,37.4c1.546,0,2.625.013,3.7-.009.284-.006.658.146.77-.357a2.279,2.279,0,0,0-2.2-2.7c-2.536-.018-5.071.384-7.111-1.955-1.492-1.711-1.722-1.527-3.455.056-.332.3-1.008.5-.541,1.207.427.646.857.135,1.209-.024,1.128-.509,2.091-.41,2.549.816.993,2.658,2.787,3.675,5.076,2.969m-26.471,0c1.077,0,2.154.006,3.231,0,.307,0,.623.061.689-.449a2.121,2.121,0,0,0-2.271-2.606c-2.566.057-5.055.257-7.069-2.021-1.461-1.653-1.667-1.492-3.344.071-.326.3-1.025.492-.626,1.2.424.749.913.169,1.309,0,1.079-.466,2.037-.371,2.435.792.935,2.738,2.849,3.512,5.506,3.027a1.162,1.162,0,0,1,.14,0m-.895,5.46c.515-.044,1.035-.058,1.544-.138,2.392-.377,2.437-.532,1.69-2.811a1.431,1.431,0,0,0-1.705-1.2c-1.168.089-2.349.022-3.524.021-.426,0-.8,0-1.074.466-1.378,2.331-.918,3.265,1.8,3.563.42.046.843.065,1.268.1m27.072-4.126c-3.087,0-3.087,0-3.786,2.353a.929.929,0,0,1-.057.128c-.266.557-.059.847.5,1.049a9.082,9.082,0,0,0,6.457-.014c.378-.141.621-.29.564-.8-.222-1.989-.988-2.715-2.975-2.715h-.7M7.155,18.794a11.966,11.966,0,0,1-1.543-.011c-1.124-.147-1.272.464-1.092,1.334A2.5,2.5,0,0,0,6.8,22.261,2.509,2.509,0,0,0,9.6,20.63c.606-1.394.313-1.829-1.183-1.836-.421,0-.842,0-1.263,0m6.659,0c-.654,0-1.308.022-1.96-.006-.634-.028-.795.285-.776.857a2.74,2.74,0,0,0,2.3,2.616,2.683,2.683,0,0,0,2.909-1.686c.481-1.314.17-1.772-1.215-1.782-.42,0-.84,0-1.26,0m26.677,0a4.909,4.909,0,0,0-.978.012c-.588.122-1.456-.422-1.723.4a2.278,2.278,0,0,0,.691,2.306,2.67,2.67,0,0,0,4.2-.538,2.044,2.044,0,0,0,.311-1.865c-.293-.61-1-.235-1.524-.306a7.263,7.263,0,0,0-.979-.008m6.5,0c-.655,0-1.31.018-1.965-.005-.571-.02-.7.271-.7.778A2.76,2.76,0,0,0,46.7,22.277a2.7,2.7,0,0,0,2.91-1.911c.342-1.234.089-1.56-1.218-1.571-.468,0-.936,0-1.4,0m-23.814.464c.034-.214-.176-.495-.812-.475-.983.031-1.969-.023-2.951.018-.53.022-1.278-.3-1.544.254a2.058,2.058,0,0,0,.4,2.111,2.531,2.531,0,0,0,2.978.989c1.21-.377,1.777-1.293,1.933-2.9m13.231.275c.044-.371,0-.77-.709-.75-1.311.035-2.624.026-3.935,0-.556-.01-.711.224-.724.752a2.761,2.761,0,0,0,2.624,2.768A2.726,2.726,0,0,0,36.4,19.538m-9.23-.743c-.606,0-1.215.044-1.816-.01-.88-.08-1.032.364-.926,1.1a2.666,2.666,0,0,0,4.935,1.111,2.022,2.022,0,0,0,.293-1.865c-.282-.648-.994-.243-1.51-.324a6.3,6.3,0,0,0-.977-.009" transform="translate(0 0)" fill="#4e4e4e"/>
    </g>
  </g>
</svg>
