<svg xmlns="http://www.w3.org/2000/svg" xmlns:xlink="http://www.w3.org/1999/xlink" width="76.845" height="41.956" viewBox="0 0 76.845 41.956">
  <defs>
    <clipPath id="clip-path">
      <rect id="Rectangle_14020" data-name="Rectangle 14020" width="76.845" height="41.956" fill="#4e4e4e"/>
    </clipPath>
  </defs>
  <g id="Group_49841" data-name="Group 49841" transform="translate(0 0)">
    <g id="Group_49840" data-name="Group 49840" transform="translate(0 0)" clip-path="url(#clip-path)">
      <path id="Path_74079" data-name="Path 74079" d="M65.813,36.081a21.2,21.2,0,0,1,10.907,2.513,10.575,10.575,0,0,0,5.634,1.467,8.679,8.679,0,0,1,2.661.343,1.926,1.926,0,0,1,1.695,1.885,11.6,11.6,0,0,1-.1,3.107.853.853,0,0,0,.255.865,1.874,1.874,0,0,1,.523,1.856,10.089,10.089,0,0,1-1.314,3.143,1.519,1.519,0,0,1-1.032.6,33.8,33.8,0,0,1-3.775.75,1.034,1.034,0,0,0-.969.8,5.209,5.209,0,0,1-9.66.448.766.766,0,0,0-.859-.535q-11.283.241-22.566.446a3.6,3.6,0,0,1-.55,0,.678.678,0,0,0-.763.427,5.215,5.215,0,0,1-9.1.092.926.926,0,0,0-.641-.488c-.953-.217-1.9-.467-2.844-.717a2.592,2.592,0,0,1-.737-.277c-1.331-.852-1.734-3.8-.671-4.941a1.063,1.063,0,0,0,.276-.65,3.261,3.261,0,0,1,2.405-2.913,75.3,75.3,0,0,1,8.578-2.2c1.1-.233,2.2-.436,3.3-.645a2.941,2.941,0,0,0,.909-.34c1.384-.782,2.81-1.494,4.153-2.34A16.224,16.224,0,0,1,58.2,36.587a53.391,53.391,0,0,1,7.612-.506m19.274,7.65c.021-1.623-.008-1.667-1.3-1.854a27.515,27.515,0,0,0-3.782-.231,3.417,3.417,0,0,1-1.466-.34q-2.324-1.088-4.672-2.127a15.716,15.716,0,0,0-5.013-1.273,43.37,43.37,0,0,0-9.944.293,14.261,14.261,0,0,0-5.832,1.648c-1.293.81-2.69,1.451-3.995,2.244a9.9,9.9,0,0,1-3.413,1.23,76.909,76.909,0,0,0-10.212,2.456c-1.386.461-1.595.762-1.643,2.2a.939.939,0,0,1-.571.98.556.556,0,0,0-.328.539A1.817,1.817,0,0,0,34.4,51.615c.237.059.476.11.715.165.911.21.911.21,1.014-.732a5.225,5.225,0,0,1,10.411.367c.014.521.17.645.655.636,3.323-.064,6.646-.1,9.968-.155q6.208-.1,12.416-.2c.317-.005.553.007.6-.459a5.221,5.221,0,0,1,10.286-.781c.083.319.172.5.555.459a28.465,28.465,0,0,0,3.483-.647.475.475,0,0,0,.334-.244,8.958,8.958,0,0,0,.869-2.081c.074-.314.02-.556-.332-.674-.547-.185-.66-.585-.566-1.121a17.777,17.777,0,0,0,.279-2.412M37.827,51.572a3.5,3.5,0,1,0,3.636-3.4,3.509,3.509,0,0,0-3.636,3.4m41.05.086a3.5,3.5,0,0,0-7.007-.015,3.5,3.5,0,1,0,7.007.015" transform="translate(-15.341 -17.669)" fill="#4e4e4e"/>
      <path id="Path_74080" data-name="Path 74080" d="M39,41.955H2.658c-.2,0-.408.006-.611-.007a.782.782,0,0,1-.817-.81.8.8,0,0,1,.845-.846c.163-.012.326-.005.489-.005,2.264,0,4.527-.011,6.79.014.475,0,.619-.115.617-.609q-.025-8.717,0-17.435c0-.549-.151-.685-.682-.667-1.14.039-2.284.029-3.426,0a5.971,5.971,0,0,1-5.841-5.9Q-.028,10.8.029,5.9A5.941,5.941,0,0,1,5.887.034q4.923-.067,9.848,0A5.965,5.965,0,0,1,21.6,6.028q.006,4.618,0,9.238A6.017,6.017,0,0,1,15.263,21.6c-1.04,0-2.081.012-3.12-.006-.351-.006-.5.069-.5.466q.018,8.871,0,17.741c0,.509.263.487.612.487q8.626-.007,17.252,0l39.947,0q3.181,0,6.362-.007a.917.917,0,0,1,.959.506.809.809,0,0,1-.583,1.132,3.874,3.874,0,0,1-.731.032H39M10.777,19.907c1.549,0,3.1,0,4.646,0a4.327,4.327,0,0,0,4.5-4.449q.026-4.677,0-9.354a4.311,4.311,0,0,0-4.31-4.4q-4.8-.068-9.6-.006a4.311,4.311,0,0,0-4.3,4.4q-.013,4.707,0,9.414a4.3,4.3,0,0,0,4.419,4.4c1.548.007,3.1,0,4.646,0" transform="translate(0 0)" fill="#4e4e4e"/>
      <path id="Path_74081" data-name="Path 74081" d="M78.824,48.126q-5.895.309-11.789.617c-.628.033-1.016-.257-1.055-.765-.042-.54.31-.881.97-.916,3.5-.186,7-.377,10.507-.538.448-.02.592-.183.642-.593.1-.809.226-1.615.362-2.418a.8.8,0,0,1,.975-.759.789.789,0,0,1,.669.991c-.094.686-.167,1.378-.306,2.055-.094.455-.024.6.482.573,2.177-.135,4.357-.231,6.536-.341,1.344-.067,2.688-.139,4.032-.2.693-.029,1.065.253,1.086.787s-.331.854-1.016.89q-5.528.289-11.058.559c-.346.017-.692.042-1.038.064v-.009" transform="translate(-32.34 -20.947)" fill="#4e4e4e"/>
      <path id="Path_74082" data-name="Path 74082" d="M12.451,14.323c0-1.978,0-3.956,0-5.933,0-.845.255-1.1,1.089-1.1,1.2-.005,2.406-.014,3.609,0a4.717,4.717,0,1,1-.045,9.434c-.775,0-1.551.03-2.324-.011-.494-.027-.678.1-.656.628.042,1.018.018,2.039.008,3.058-.007.683-.309,1.063-.823,1.078-.535.014-.857-.384-.859-1.1,0-2.019,0-4.037,0-6.056m1.689-2.368h0c0,.876.011,1.753-.006,2.629-.007.341.1.464.454.456.917-.021,1.835.015,2.751-.017A3.021,3.021,0,0,0,17.432,9c-.954-.059-1.915-.015-2.872-.034-.318-.007-.431.109-.425.426.015.856.005,1.712.005,2.568" transform="translate(-6.102 -3.568)" fill="#4e4e4e"/>
    </g>
  </g>
</svg>
