<svg id="Group_49843" data-name="Group 49843" xmlns="http://www.w3.org/2000/svg" xmlns:xlink="http://www.w3.org/1999/xlink" width="53.251" height="55.084" viewBox="0 0 53.251 55.084">
  <defs>
    <clipPath id="clip-path">
      <rect id="Rectangle_14021" data-name="Rectangle 14021" width="53.251" height="55.084" fill="#4e4e4e"/>
    </clipPath>
  </defs>
  <g id="Group_49842" data-name="Group 49842" clip-path="url(#clip-path)">
    <path id="Path_74083" data-name="Path 74083" d="M26.55,55.072q-12.262,0-24.524,0c-1.9,0-2.007-.116-2.023-1.955,0-.051,0-.1,0-.152-.017-3.685-.018-3.708,3.6-3.849.762-.03,1.135-.2,1.054-1.029a9.477,9.477,0,0,1,0-1.674c.073-.9-.052-1.415-1.2-1.192-1.173.228-1.485-.482-1.329-1.57.6-4.218,1.167-8.442,1.752-12.662.108-.777.425-1.542-.6-2.05-.468-.231-.363-.9-.363-1.409,0-2.285,0-4.57,0-6.854,0-.578.015-1.1-.775-1.225-1.012-.162-1.064-.929-1.189-1.81-.367-2.585.562-4.051,2.967-5.314C11.1,8.55,18.116,4.469,25.165.449A2.573,2.573,0,0,1,28.08.455Q39.387,6.888,50.77,13.187a2.377,2.377,0,0,1,1.5,2.63,14.928,14.928,0,0,0-.015,2.283,1.077,1.077,0,0,1-.877,1.244c-1.049.159-1.076.823-1.062,1.641.032,1.878.051,3.759-.007,5.635-.03.986.43,2.151-.979,2.759-.4.173-.082.943-.015,1.437.579,4.221,1.135,8.446,1.761,12.661.2,1.339-.159,2.011-1.581,1.726-.817-.164-.894.205-.921.883-.116,2.97-.136,3.017,2.867,2.988,1.287-.013,1.842.381,1.811,1.738-.112,4.882.639,4.234-4.156,4.252-7.515.028-15.029.007-22.544.007m3.3-22.782c3.223,1.955,4.2,4.651,4.071,7.944-.1,2.585.012,5.178-.037,7.766-.017.871.268,1.131,1.125,1.113,2.436-.049,4.874-.042,7.31,0,.793.012,1.075-.249,1.044-1.048-.052-1.369-.037-2.741-.007-4.112.031-1.386-.241-2.235-1.994-2.233-2.152,0-2.89-1.162-2.48-3.288.663-3.435,1.3-6.876,2.014-10.3a1.876,1.876,0,0,0-1.029-2.461,5.907,5.907,0,0,1-2.333-2.147,2.033,2.033,0,0,0-2.309-.929,71.406,71.406,0,0,1-17.164,0A2.2,2.2,0,0,0,15.639,23.6a6.712,6.712,0,0,1-2.476,2.219c-.968.5-1.05,1.156-.856,2.106.7,3.427,1.328,6.869,2,10.3.476,2.428-.234,3.493-2.685,3.523-1.416.017-1.725.7-1.732,1.844-.009,1.472.045,2.946-.02,4.416-.039.893.3,1.122,1.143,1.107,2.385-.045,4.773-.061,7.157.006.961.027,1.2-.3,1.185-1.212-.051-2.995-.04-5.991-.01-8.985a6.785,6.785,0,0,1,2.746-5.677c.884-.652,1.123-.959.15-1.8a3.042,3.042,0,0,1-.61-4.119,3.4,3.4,0,0,1,4.09-1.46,2.494,2.494,0,0,0,1.858-.034,3.412,3.412,0,0,1,3.978,1.425,3.149,3.149,0,0,1-.484,4.151,9.06,9.06,0,0,1-1.222.882m17.56-18.648c-.534-.363-.725-.514-.934-.631C40.158,9.458,33.828,5.926,27.531,2.335a1.691,1.691,0,0,0-1.93.071Q16.266,7.678,6.916,12.924c-.265.15-.72.179-.691.718ZM21.247,43.378c0,1.523.031,3.047-.013,4.569-.023.815.185,1.183,1.1,1.167,2.843-.051,5.687-.046,8.53,0,.856.013,1.155-.25,1.143-1.121-.043-3.046.008-6.093-.032-9.139a5.238,5.238,0,0,0-2.565-4.573c-.658-.42-1.256-.6-1.887.076a1.049,1.049,0,0,1-1.621.118c-.933-.956-1.721-.453-2.521.14a5.219,5.219,0,0,0-2.122,4.347c-.025,1.472-.005,2.945-.009,4.417m5.31,9.741c7.814,0,15.629-.031,23.443.031,1.258.01,1.481-.487,1.322-1.513-.169-1.088-1.036-.615-1.577-.616Q26.606,50.98,3.468,51c-.254,0-.508.018-.761,0-.587-.036-.75.249-.818.812-.135,1.123.358,1.331,1.378,1.326,7.763-.038,15.527-.021,23.291-.021M3.025,15.969c-.459,1.246-.062,1.757,1.161,2.085a88.939,88.939,0,0,0,15.247,2.766,82.645,82.645,0,0,0,29.982-2.883c.365-.1.877-.1.93-.622.04-.392.106-.939-.106-1.164-.329-.347-.847,0-1.26.112A83.419,83.419,0,0,1,13.688,18.3c-3.6-.558-7.141-1.429-10.664-2.33m39.537-.32H10.707a74.244,74.244,0,0,0,31.855,0M8.081,35.472H7.847c0-1.979.022-3.957-.021-5.935-.008-.349.253-1.044-.518-.979-.53.045-1.157.1-1.268.848-.03.2-.076.4-.1.6-.511,3.667-1.031,7.334-1.528,11-.333,2.46-.335,2.4,2.092,1.736,1.394-.382,2.049-1.018,1.84-2.562s-.182-3.14-.258-4.712M45.367,35.4h-.2c-.07,1.318-.158,2.635-.207,3.954-.113,3.014-.005,3.136,3.041,3.681a.936.936,0,0,1,.148.034c.778.274.977.034.844-.78-.3-1.8-.5-3.617-.743-5.426-.322-2.362-.67-4.72-.965-7.085A1.206,1.206,0,0,0,46,28.568c-.981-.032-.593.789-.607,1.2-.063,1.874-.027,3.752-.027,5.629M24.693,27.552a1.661,1.661,0,0,0-1.544.988,1.323,1.323,0,0,0,.335,1.517c2.3,2.731,3.292,2.772,5.94.319.725-.671,1.1-1.363.422-2.222a1.452,1.452,0,0,0-2.157-.266,1.475,1.475,0,0,1-2.146,0,2.479,2.479,0,0,0-.85-.336m-14.4.012c-.507.143-.577.368-.567.64.144,3.634.3,7.268.428,10.9.039,1.1.823.806,1.42.788.709-.022,1.086-.293.9-1.156-.449-2.07-.792-4.163-1.193-6.244-.316-1.642-.655-3.28-.987-4.931m32.622-.056c-.71,3.761-1.36,7.383-2.1,10.986-.182.891-.089,1.344.9,1.428.9.076,1.377-.087,1.4-1.183.056-3.292.241-6.581.353-9.871.014-.4.265-.909-.549-1.36M4.87,26.357a9.474,9.474,0,0,0,3.345-4.1c.269-.711.247-1.271-.706-1.409-.6-.086-1.177-.271-1.765-.411-.536-.128-.881-.018-.877.632.011,1.65,0,3.3,0,5.285m43.5.012c0-1.447,0-2.548,0-3.65-.01-2.974.25-2.419-2.521-1.905-1.069.2-1.119.768-.769,1.614a9.741,9.741,0,0,0,3.291,3.941m-3.086-.084c-.943-1.255-1.811-2.143-1.986-3.3-.232-1.531-1.051-1.535-2.2-1.182a7.257,7.257,0,0,1-1.193.187c-.818.106-.971.418-.337,1.013a15.5,15.5,0,0,0,5.715,3.282m-37.271-.1A12.168,12.168,0,0,0,11.883,24.4c.829-.551,2.259-1.245,2.034-1.974-.28-.9-1.849-.5-2.829-.792-.5-.152-.84-.006-.935.621a8.907,8.907,0,0,1-2.137,3.93M8.007,46.67h.006a5.693,5.693,0,0,0-.02-1.21c-.078-.352.385-1.029-.426-1.01-.576.013-1.082.222-1.052,1,.039,1.011.02,2.023.011,3.035-.005.594.383.606.816.611s.673-.136.666-.6c-.009-.607,0-1.214,0-1.821m37.22-2.218c0,1.249.005,2.505,0,3.762,0,.488.015.876.693.893.742.018.817-.379.8-.952a19.379,19.379,0,0,1,.009-2.274c.1-1.061-.356-1.5-1.5-1.428" transform="translate(0 0)" fill="#4e4e4e"/>
  </g>
</svg>
