<svg xmlns="http://www.w3.org/2000/svg" width="58" height="58" viewBox="0 0 58 58">
  <g id="Group_49811" data-name="Group 49811" transform="translate(58) rotate(90)">
    <g id="Path_74050" data-name="Path 74050" transform="translate(0 0)" fill="none">
      <path d="M29,58A29,29,0,1,0,0,29,29,29,0,0,0,29,58Z" stroke="none"/>
      <path d="M 29 56 C 32.64585876464844 56 36.18159866333008 55.28639984130859 39.50901031494141 53.8790283203125 C 42.72391128540039 52.51924133300781 45.61161041259766 50.57215881347656 48.09188079833984 48.09188079833984 C 50.57215881347656 45.61161041259766 52.51924133300781 42.72391128540039 53.8790283203125 39.50901031494141 C 55.28639984130859 36.18159866333008 56 32.64585876464844 56 29 C 56 25.35413932800293 55.28639984130859 21.81839942932129 53.8790283203125 18.49098968505859 C 52.51924133300781 15.27608966827393 50.57215881347656 12.38838958740234 48.09188079833984 9.908120155334473 C 45.61161041259766 7.427840232849121 42.72391128540039 5.480760097503662 39.50901031494141 4.120969772338867 C 36.18159866333008 2.713599920272827 32.64585876464844 2 29 2 C 25.35413932800293 2 21.81839942932129 2.713599920272827 18.49098968505859 4.120969772338867 C 15.27608966827393 5.480760097503662 12.38838958740234 7.427840232849121 9.908120155334473 9.908120155334473 C 7.427840232849121 12.38838958740234 5.480760097503662 15.27608966827393 4.120969772338867 18.49098968505859 C 2.713599920272827 21.81839942932129 2 25.35413932800293 2 29 C 2 32.64585876464844 2.713599920272827 36.18159866333008 4.120969772338867 39.50901031494141 C 5.480760097503662 42.72391128540039 7.427840232849121 45.61161041259766 9.908120155334473 48.09188079833984 C 12.38838958740234 50.57215881347656 15.27608966827393 52.51924133300781 18.49098968505859 53.8790283203125 C 21.81839942932129 55.28639984130859 25.35413932800293 56 29 56 M 29 58 C 12.98373985290527 58 -3.552713678800501e-15 45.01625823974609 -3.552713678800501e-15 29 C -3.552713678800501e-15 12.98373985290527 12.98373985290527 -3.552713678800501e-15 29 -3.552713678800501e-15 C 45.01625823974609 -3.552713678800501e-15 58 12.98373985290527 58 29 C 58 45.01625823974609 45.01625823974609 58 29 58 Z" stroke="none" fill="#edebe8"/>
    </g>
    <path id="Path_74049" data-name="Path 74049" d="M0,0,11.878,10.041,24.215,0" transform="translate(16.5 23.459)" fill="none" stroke="#d5d5d5" stroke-width="2"/>
  </g>
</svg>
